<svg xmlns="http://www.w3.org/2000/svg" version="1.1" xmlns:xlink="http://www.w3.org/1999/xlink" xmlns:svgjs="http://svgjs.dev/svgjs" width="100%" height="100%" viewBox="0 0 1000 600"><rect width="1000" height="600" x="0" y="0" fill="#4f776d"/><g><rect width="333.3333333333333" height="333.3333333333333" rx="13.333333333333334" ry="13.333333333333334" y="237.96111381005744" fill="#90a955" transform="matrix(0.5794042170517605,0,0,0.5794042170517605,0,65.55697464967116)" x="215.73890686035156"/><path d="M353.70331074604746 479.62778871099897L353.70331074604746 479.62778871099897Q347.8108712915058 479.62778871099897 344.18655337303767 474.9278667651145Q340.56223545456953 470.2045621229819 340.56223545456953 457.4142272752266L340.56223545456953 457.4142272752266Q340.56223545456953 452.36356488561944 341.4040125195041 444.694040516216Q342.2457895844386 437.04789884306064 343.67213405557766 427.7883511287808Q345.1218612229649 418.528803414501 346.61835378284854 409.10557682648385L346.61835378284854 409.10557682648385Q344.6074419055049 408.91851525649844 342.40946845817587 408.91851525649844Q340.234877707095 408.91851525649844 337.8732253860287 408.91851525649844L337.8732253860287 408.91851525649844Q338.7150024509632 403.0260758019567 340.492087365825 400.7579542658831Q342.2457895844386 398.4898327298095 348.48896948270306 397.9754134123495L348.48896948270306 397.9754134123495Q350.3362024863094 385.6994978820543 351.6690161724557 374.0782978467081Q353.0252125548502 362.45709781136196 353.0252125548502 353.7119694145421L353.0252125548502 353.7119694145421Q353.0252125548502 350.18118228106675 352.27696627490843 345.20066798020406Q351.5053372987185 340.24353637558966 350.49988136004663 337.20378586332606L350.49988136004663 337.20378586332606Q354.3814089372447 334.0003564773252 361.77034095167005 333.2521101973834Q369.18265566234356 332.50386391744155 376.43129149927984 332.50386391744155L376.43129149927984 332.50386391744155Q382.6510887012961 332.50386391744155 389.1280955620423 332.66754279117885Q395.6284851190368 332.83122166491614 401.84828232105303 332.83122166491614L401.84828232105303 332.83122166491614Q409.7516336529383 332.83122166491614 416.3221712986773 332.2466542587116Q422.89270894441626 331.66208685250706 426.93791539535164 329.6277922789153L426.93791539535164 329.6277922789153Q426.4234960778916 337.20378586332606 423.9916956680808 341.1554615292687Q421.53651256202176 345.1305198914595 417.51468880733455 346.4633335776059Q413.46948235639917 347.8195299600004 407.57704290185745 347.8195299600004L407.57704290185745 347.8195299600004Q398.99559337877486 347.8195299600004 389.8997245382323 346.72054323633586Q380.80385569768976 345.6215565126713 372.0587273008699 344.10168125653956L372.0587273008699 344.10168125653956Q371.87166573088444 353.3612289708194 369.60354419481087 367.76496985969914Q367.33542265873723 382.16871074857886 364.81009146393365 397.81173453861226L364.81009146393365 397.81173453861226Q373.39154098701624 397.64805566487496 381.64563276262425 397.2271671324077Q389.8997245382323 396.80627859994047 396.8911507164385 395.6371437875314Q403.8591941983966 394.4446262788741 408.06807952306923 392.27003552779325L408.06807952306923 392.27003552779325Q407.41336402812016 401.3425216720876 404.2800827308639 405.387728123023Q401.1701841298557 409.4329345739584 396.2130525252413 410.4383905126302Q391.23253822437863 411.443846451302 384.8490621486251 411.443846451302L384.8490621486251 411.443846451302Q379.6347208852807 411.443846451302 374.39699692568803 410.9528098300902Q369.18265566234356 410.4383905126302 362.79917958659007 409.9473538914184L362.79917958659007 409.9473538914184Q361.115625456721 421.0541346093046 359.9231079480637 431.57634792098617Q358.75397313565463 442.0985612326678 358.75397313565463 450.5163318820131L358.75397313565463 450.5163318820131Q358.75397313565463 457.0868695277521 359.9231079480637 463.0494570710383Q361.115625456721 469.0354273105728 365.32451078139366 473.57167038271996L365.32451078139366 473.57167038271996Q362.1210813953928 477.2895190861808 358.91765200939193 478.4586538985899Q355.7142226233911 479.62778871099897 353.70331074604746 479.62778871099897Z " fill="#ffffff" transform="matrix(0.5794042170517605,0,0,0.5794042170517605,0,65.55697464967116)"/><path d="M647.1915340318917 478.0552796744211L647.1915340318917 478.0552796744211Q641.6877483836624 478.0552796744211 638.3024834016168 473.6653554073812Q634.9172184195711 469.2535907211022 634.9172184195711 457.3068813973668L634.9172184195711 457.3068813973668Q634.9172184195711 452.5893508417418 635.7034735121752 445.42569333134827Q636.4897286047794 438.2838762401938 637.8219941783586 429.635070221548Q639.1761001711769 420.9862642029022 640.5738870024733 412.18457524958336L640.5738870024733 412.18457524958336Q638.6956109479188 412.0098518956713 636.6426115394524 412.0098518956713Q634.6114525502251 412.0098518956713 632.4055702070855 412.0098518956713L632.4055702070855 412.0098518956713Q633.1918252996898 406.50606624744216 634.8516971618541 404.38754558125873Q636.4897286047794 402.2690249150753 642.3211205415936 401.7885356918172L642.3211205415936 401.7885356918172Q644.046513661475 390.3223155913398 645.2914175580983 379.4676272295545Q646.5581618739604 368.6129388677693 646.5581618739604 360.44462207238155L646.5581618739604 360.44462207238155Q646.5581618739604 357.1467187672919 645.8592684583123 352.4947094693839Q645.1385346234251 347.8645405907149 644.1993965961481 345.02528608964434L644.1993965961481 345.02528608964434Q647.8249061898227 342.03314865390075 654.7264786693481 341.3342552382526Q661.6498915681127 340.6353618226044 668.420421532204 340.6353618226044L668.420421532204 340.6353618226044Q674.2299730497792 340.6353618226044 680.2797691789835 340.7882447572774Q686.3514057274268 340.9411276919505 692.160957245002 340.9411276919505L692.160957245002 340.9411276919505Q699.5430189477855 340.9411276919505 705.6801767539458 340.3951172109754Q711.8173345601061 339.84910673000024 715.5957270884539 337.9489902562069L715.5957270884539 337.9489902562069Q715.1152378651958 345.02528608964434 712.8438342643393 348.7163169410361Q710.5505902442438 352.4291882116669 706.794038135135 353.67409210829015Q703.0156456067873 354.9408364241524 697.5118599585581 354.9408364241524L697.5118599585581 354.9408364241524Q689.4964260978434 354.9408364241524 681.0005030138707 353.9143367199192Q672.5045799298979 352.887837015686 664.3362631345102 351.4682097651507L664.3362631345102 351.4682097651507Q664.1615397805981 360.1170157837965 662.0430191144147 373.5707140350233Q659.9244984482312 387.02441228625014 657.5657331704188 401.63565275714416L657.5657331704188 401.63565275714416Q665.5811670311334 401.48276982247114 673.290835022502 401.08964227616906Q681.0005030138707 400.696514729867 687.530788366333 399.6044937679167Q694.0392332995564 398.4906323867275 697.9705087625772 396.45947339750006L697.9705087625772 396.45947339750006Q697.358977023885 404.93355606223383 694.4323608458585 408.71194859058164Q691.5275850870709 412.49034111892945 686.8974162084019 413.42947914620663Q682.245406910494 414.3686171734838 676.2829724582457 414.3686171734838L676.2829724582457 414.3686171734838Q671.4125589679477 414.3686171734838 666.5203050584107 413.9099683694647Q661.6498915681127 413.42947914620663 655.6874571158644 412.9708303421875L655.6874571158644 412.9708303421875Q654.1149469306561 423.3450294807147 653.0010855494668 433.17321813826675Q651.9090645875166 443.0014067958188 651.9090645875166 450.8639577218604L651.9090645875166 450.8639577218604Q651.9090645875166 457.0011155280207 653.0010855494668 462.5704224339669Q654.1149469306561 468.16156975915203 658.0462223936769 472.3986110915189L658.0462223936769 472.3986110915189Q655.0540849579332 475.87123775052066 652.0619475221897 476.96325871247086Q649.0698100864461 478.0552796744211 647.1915340318917 478.0552796744211ZM735.5578702729041 478.0552796744211L735.5578702729041 478.0552796744211Q730.0540846246749 478.0552796744211 726.6688196426292 473.6653554073812Q723.3053950798226 469.2535907211022 723.3053950798226 457.3068813973668L723.3053950798226 457.3068813973668Q723.3053950798226 451.65021281446457 724.3974160417727 442.67380050723375Q725.489437003723 433.71922861924185 727.2366705428433 422.71165732278354Q728.9620636627246 411.7040860263253 730.60009510565 399.82289796030676Q732.2599669678144 387.9635503135273 733.3519879297646 376.23524518218187Q734.4658493109538 364.52878047007545 734.4658493109538 354.3074642662213L734.4658493109538 354.3074642662213Q734.4658493109538 348.6507956833191 733.9853600876958 343.21253129280694Q733.5267112836766 337.79610732153384 731.1679460058641 333.07857676590885L731.1679460058641 333.07857676590885Q732.8933391257455 331.5060665807005 736.1912424308352 330.56692855342334Q739.4891457359249 329.62779052614616 741.6950280790644 329.62779052614616L741.6950280790644 329.62779052614616Q747.0459307926204 329.62779052614616 749.7978236167351 333.23145970058187Q752.5497164408496 336.8569692942566 752.5497164408496 346.13914747083356L752.5497164408496 346.13914747083356Q752.5497164408496 351.9486989884088 751.2829721249874 361.5366430343318Q750.0380682283641 371.1245870802548 748.2908346892438 382.85289221160025Q746.5654415693624 394.5593569237067 744.752686772525 406.89919379374425Q742.9617723949266 419.26087108302085 741.6950280790644 430.66156992578124Q740.4282837632021 442.06226876854157 740.4282837632021 450.8639577218604L740.4282837632021 450.8639577218604Q740.4282837632021 457.0011155280207 741.4547834674353 462.5704224339669Q742.4812831716686 468.16156975915203 746.4125586346894 472.3986110915189L746.4125586346894 472.3986110915189Q743.4204211989457 475.87123775052066 740.4282837632021 476.96325871247086Q737.4579867466974 478.0552796744211 735.5578702729041 478.0552796744211ZM805.0759247106556 479.62778985962944L805.0759247106556 479.62778985962944Q793.7407471256122 479.62778985962944 786.1184408111995 473.8182383420542Q778.496134496787 468.008686824479 774.6303802914832 458.0931364899709Q770.7864665054184 448.1775861554629 770.7864665054184 436.2308768317274L770.7864665054184 436.2308768317274Q770.7864665054184 427.1234220090625 773.0578701062749 417.75388215552954Q775.3511141263704 408.40618272123555 779.5881554587373 399.7573767025898Q783.8470372103432 391.108570683944 790.1370779511765 384.27251946213556Q796.4271186920097 377.4146278210881 804.3551908757684 373.41783110035027Q812.305103478766 369.39919396037345 821.8930475246891 369.39919396037345L821.8930475246891 369.39919396037345Q833.2063846904935 369.39919396037345 840.8505314241451 375.23058589718767Q848.4728377385576 381.04013741476285 852.2512302669054 390.8683260723149Q856.0077823760142 400.696514729867 856.0077823760142 412.7961069882755L856.0077823760142 412.7961069882755Q856.0077823760142 421.92540223017943 853.8237404521137 431.27310166447336Q851.6178581089742 440.6426415180063 847.2934550996514 449.2914475366521Q842.9690520903285 457.9402535552979 836.7445326072122 464.77630477710636Q830.5418535433349 471.6123559989147 822.5919409403372 475.6309931388916Q814.6638687565786 479.62778985962944 805.0759247106556 479.62778985962944ZM812.7637522827852 468.008686824479L812.7637522827852 468.008686824479Q819.2285163775306 468.008686824479 823.7713235792435 464.29581555384823Q828.3359712001954 460.60478470245647 831.3281086359391 454.6423502502082Q834.3202460716826 448.658075378721 835.9582775146081 441.8875454146296Q837.6181493767724 435.13885586977716 838.3170427924205 428.84881512894384Q839.0377766273076 422.5587743881105 839.0377766273076 418.29989263650464L839.0377766273076 418.29989263650464Q839.0377766273076 399.9102596372628 832.2017254054992 390.5625602029688Q825.3438337644518 381.19302034943587 813.7247307293014 381.19302034943587L813.7247307293014 381.19302034943587Q807.4346899884681 381.19302034943587 802.9355636252332 384.8840512008277Q798.4582776812372 388.59692247145847 795.5535019224496 394.49383566598965Q792.648726163662 400.3907488605209 790.9233330437806 407.1394384053733Q789.1760995046603 413.9099683694647 788.4772060890122 420.200009110298Q787.778312673364 426.49004985113135 787.778312673364 430.72709118349826L787.778312673364 430.72709118349826Q787.778312673364 449.13856460197906 794.5270022182164 458.57362571322903Q801.2975321823078 468.008686824479 812.7637522827852 468.008686824479ZM906.9614804606118 478.5357688976792L906.9614804606118 478.5357688976792Q903.3578112861761 478.5357688976792 901.5450564893387 476.72301410084185Q899.7323016925013 474.91025930400446 898.9460465998972 471.7652389335878L898.9460465998972 471.7652389335878Q896.2815154527385 460.60478470245647 893.202016340039 448.2649478324189Q890.1443576465783 435.9251109623813 886.7590926645327 424.1968058310359Q883.3738276824869 412.49034111892945 879.6827968310952 402.9679183307234Q875.9917659797034 393.4673359617565 872.2133734513556 387.8106673788543Q868.4349809230079 382.1321583767131 864.6565883946599 381.97927544204003L864.6565883946599 381.97927544204003Q866.7095878031265 376.01684098979183 870.7282249431032 373.81095864665235Q874.7250216638412 371.6050763035129 877.5642761649117 371.6050763035129L877.5642761649117 371.6050763035129Q881.6484345626055 371.6050763035129 885.8854758949725 375.23058589718767Q890.1443576465783 378.8342550716234 893.595143886341 387.8106673788543L893.595143886341 387.8106673788543Q894.5342819136182 390.3223155913398 896.1941537757826 396.284750043588Q897.854025637947 402.2690249150753 899.8196633694573 409.9786929064439Q901.7853011009678 417.6883608978125 903.7509388324781 426.00956062787327Q905.7165765639885 434.352600777173 907.2890867491969 441.73466247995657Q908.8615969344053 449.13856460197906 909.9536178963555 454.4021056385792Q911.0456388583057 459.66564667517923 911.0456388583057 461.39103979506064L911.0456388583057 461.39103979506064Q916.2436586371888 448.1775861554629 921.5945613507448 433.23873939598377Q926.9454640643011 418.29989263650464 929.4571122767866 403.6886521656106L929.4571122767866 403.6886521656106Q927.5569958029931 398.97112160998563 925.2855922021366 395.10536740468183Q923.0141886012801 391.261453618617 920.0220511655365 389.68894343340867L920.0220511655365 389.68894343340867Q921.7474442854179 386.543923062992 925.1982305251806 384.27251946213556Q928.6708571841824 381.97927544204003 932.6021326472031 381.97927544204003L932.6021326472031 381.97927544204003Q935.5942700829468 381.97927544204003 938.4116841647784 383.7046685619214Q941.2509386658489 385.4519021010418 942.8234488510574 389.2084542101506L942.8234488510574 389.2084542101506Q943.7625868783344 391.7419428418751 945.3350970635428 397.5514943594503Q946.9076072487511 403.3610458770255 948.7858833033056 411.0051926106771Q950.685999777099 418.6274989250897 952.4987545739363 426.7302944627604Q954.2896689515347 434.8112495811921 955.8621791367431 442.1277900262586Q957.4346893219514 449.44433047132515 958.4611890261846 454.5549885732522Q959.4876887304177 459.66564667517923 959.4876887304177 461.39103979506064L959.4876887304177 461.39103979506064Q963.7247300627847 451.49732987979155 967.3502396564594 440.40239690637725Q970.9757492501342 429.30746393296295 973.5529187203368 418.6274989250897Q976.1519286097783 407.9256934979775 977.5715558603137 399.27688747933166Q978.9911831108487 390.62808146068585 978.9911831108487 385.4519021010418L978.9911831108487 385.4519021010418Q978.9911831108487 383.24601975790233 978.5980555645468 381.34590328410894Q978.2049280182447 379.4676272295545 977.0910666370555 377.8951170443462L977.0910666370555 377.8951170443462Q979.296948980195 374.4443308045835 982.8350968969137 373.26494816567725Q986.3732448136324 372.085565526771 988.426244222099 372.085565526771L988.426244222099 372.085565526771Q991.5712645925155 372.085565526771 993.536902324026 373.8764799043694Q995.5025400555363 375.6892347012068 995.5025400555363 380.1009993874857L995.5025400555363 380.1009993874857Q995.5025400555363 383.24601975790233 993.9955511280449 390.1694326566668Q992.5104026197927 397.0710051361922 989.845871472634 406.50606624744216Q987.1594999062365 415.94112735869214 983.5558307318008 426.55557110884837Q979.930321138126 437.1700148590046 975.6932798057591 447.71893735144374Q971.4343980541533 458.246019424644 966.7168674985284 467.22243173187485L966.7168674985284 467.22243173187485Q965.14435731332 470.19272874837947 964.5983468323449 471.6997176758708Q964.0523363513697 473.18486618412305 964.0523363513697 474.60449343465837L964.0523363513697 474.60449343465837Q964.0523363513697 475.0849826579165 964.0523363513697 475.54363146193555Q964.0523363513697 476.0241206851937 964.2052192860427 476.6574928431248L964.2052192860427 476.6574928431248Q958.8543165724867 478.5357688976792 955.403530332724 478.5357688976792L955.403530332724 478.5357688976792Q951.6251378043761 478.5357688976792 949.8123830075388 476.72301410084185Q947.9996282107014 474.91025930400446 947.2133731180973 471.7652389335878L947.2133731180973 471.7652389335878Q943.7625868783344 457.0011155280207 941.5567045351951 448.1120648977459Q939.3508221920556 439.223014267471 938.0185566184763 433.80659029619784Q936.6862910448971 428.36832590568577 935.5942700829468 424.28416750799187L935.5942700829468 424.28416750799187Q931.9687604892721 435.4446217391232 927.4914745452762 446.69243764721057Q923.0141886012801 457.9402535552979 918.2966580456551 467.22243173187485L918.2966580456551 467.22243173187485Q916.8770307951198 470.19272874837947 916.3310203141448 471.6997176758708Q915.7631694139307 473.18486618412305 915.6102864792576 474.60449343465837L915.6102864792576 474.60449343465837Q915.6102864792576 475.0849826579165 915.6976481562136 475.54363146193555Q915.7631694139307 476.0241206851937 915.7631694139307 476.6574928431248L915.7631694139307 476.6574928431248Q910.5869900542866 478.5357688976792 906.9614804606118 478.5357688976792ZM1048.0287483253423 479.62778985962944L1048.0287483253423 479.62778985962944Q1034.6624117510714 479.62778985962944 1026.1664886670987 473.8182383420542Q1017.670565583126 468.008686824479 1013.6519284431491 458.0931364899709Q1009.6551317224113 448.1775861554629 1009.6551317224113 436.2308768317274L1009.6551317224113 436.2308768317274Q1009.6551317224113 427.1234220090625 1011.9265353232678 417.75388215552954Q1014.2197793433633 408.40618272123555 1018.4568206757301 399.7573767025898Q1022.693862008097 391.108570683944 1028.9839027489302 384.27251946213556Q1035.2739434897635 377.4146278210881 1043.2238560927613 373.41783110035027Q1051.173768695759 369.39919396037345 1060.761712741682 369.39919396037345L1060.761712741682 369.39919396037345Q1073.3417942233486 369.39919396037345 1079.3042286755967 375.6892347012068Q1085.288503547084 381.97927544204003 1085.288503547084 390.78096439535886L1085.288503547084 390.78096439535886Q1085.288503547084 397.70437729412333 1081.9032385650385 405.0209177391899Q1078.5179735829927 412.3374581842564 1072.0095286497694 418.6274989250897Q1065.4792432973068 424.917539665923 1056.19706512073 428.84881512894384Q1046.914886944153 432.78009059196467 1035.1210605550905 432.78009059196467L1035.1210605550905 432.78009059196467Q1030.8840192227235 432.78009059196467 1026.6251374711178 432.2996013687066L1026.6251374711178 432.2996013687066Q1026.952743759703 449.9248196945832 1033.2427845005363 458.9667532595311Q1039.5328252413697 468.008686824479 1050.9990453418468 468.008686824479L1050.9990453418468 468.008686824479Q1058.8615962678887 468.008686824479 1064.8458711393757 464.1429326191752Q1070.830146010863 460.2990188331104 1074.586698119972 452.1088616184837L1074.586698119972 452.1088616184837Q1076.4868145937653 453.85609515760405 1077.4259526210426 456.28038169313356Q1078.3650906483194 458.72650864790205 1078.3650906483194 460.93239099104153L1078.3650906483194 460.93239099104153Q1078.3650906483194 465.80280448133954 1075.3729532125758 469.3409523980583Q1072.4026561960713 472.879100314777 1067.7506468981633 475.1505039156335Q1063.1204780194944 477.443747935729 1057.8569369828942 478.5357688976792Q1052.5715555270554 479.62778985962944 1048.0287483253423 479.62778985962944ZM1034.0290395931404 422.71165732278354L1034.0290395931404 422.71165732278354Q1045.4952596936178 422.71165732278354 1053.2049276849862 418.6274989250897Q1060.914595676355 414.54334052739586 1064.8458711393757 408.31882104427956Q1068.7771466023964 402.11614198040223 1068.7771466023964 395.978984174242L1068.7771466023964 395.978984174242Q1068.7771466023964 389.8418263680817 1064.998754074049 385.51742335875883Q1061.220361545701 381.19302034943587 1053.3578106196592 381.19302034943587L1053.3578106196592 381.19302034943587Q1046.281514786222 381.19302034943587 1041.49846297288 385.21165748941274Q1036.693570740299 389.2084542101506 1033.7014333045554 395.5858566279399Q1030.7311362880507 401.9632590457292 1029.1586261028424 409.0395548791667Q1027.5861159176338 416.1158507126042 1026.952743759703 422.23116809952546L1026.952743759703 422.23116809952546Q1030.7311362880507 422.71165732278354 1034.0290395931404 422.71165732278354ZM1118.311217436459 478.0552796744211L1118.311217436459 478.0552796744211Q1112.8074317882297 478.0552796744211 1109.4221668061841 473.6653554073812Q1106.0369018241383 469.2535907211022 1106.0369018241383 457.3068813973668L1106.0369018241383 457.3068813973668Q1106.0369018241383 448.02470322078983 1107.6967736863025 438.13099330552075Q1109.356645548467 428.2154429710127 1110.9946769913925 417.5136375439005Q1112.6545488535567 406.8336725360273 1112.6545488535567 395.0398461469648L1112.6545488535567 395.0398461469648Q1112.6545488535567 389.9947093027547 1112.1740596302989 384.5782853314816Q1111.7154108262794 379.1618613602085 1109.356645548467 374.75009667392953L1109.356645548467 374.75009667392953Q1111.0820386683486 373.0247035540482 1114.3799419734382 372.085565526771Q1117.677845278528 371.1245870802548 1119.8837276216673 371.1245870802548L1119.8837276216673 371.1245870802548Q1123.9678860193612 371.1245870802548 1127.2002680667338 373.81095864665235Q1130.4108096948676 376.47548979381094 1130.4108096948676 383.0931368232293L1130.4108096948676 383.0931368232293Q1130.4108096948676 387.63594402494226 1128.9256611866153 397.3986114247773Q1127.4405126783627 407.1394384053733 1125.8680024931546 418.6274989250897L1125.8680024931546 418.6274989250897Q1131.8304369454027 402.74951413833344 1138.7538498441672 391.7419428418751Q1145.6772627429318 380.7343715454168 1151.9673034837651 375.0558625432756Q1158.2573442245982 369.39919396037345 1162.4943855569652 369.39919396037345L1162.4943855569652 369.39919396037345Q1165.4865229927086 369.39919396037345 1167.2119161125902 371.45219336883986Q1168.9373092324713 373.4833523580673 1169.6580430673587 376.16972392446485Q1170.3569364830068 378.8342550716234 1170.3569364830068 381.04013741476285L1170.3569364830068 381.04013741476285Q1170.3569364830068 382.9184134693173 1170.0511706136608 385.1242958124567Q1169.7235643250756 387.3301781555962 1169.4177984557296 388.9026883408045L1169.4177984557296 388.9026883408045Q1167.0590331779172 388.4221991175464 1165.0060337694508 388.4221991175464L1165.0060337694508 388.4221991175464Q1158.5631100939445 388.4221991175464 1152.360431030067 392.98684673849834Q1146.1359115469509 397.5514943594503 1140.8723705103507 404.8680348045168Q1135.6088294737506 412.18457524958336 1131.5901923337738 420.5057749796441Q1127.593395613036 428.84881512894384 1125.3875132698963 436.62400437802944Q1123.181630926757 444.42103404635407 1123.181630926757 449.59721340599816L1123.181630926757 449.59721340599816Q1123.181630926757 456.67350923943565 1124.2081306309901 462.41753949929387Q1125.2346303352233 468.16156975915203 1129.1659057982442 472.3986110915189L1129.1659057982442 472.3986110915189Q1126.1737683625006 475.87123775052066 1123.181630926757 476.96325871247086Q1120.1894934910133 478.0552796744211 1118.311217436459 478.0552796744211ZM1259.9900170398814 479.62778985962944L1259.9900170398814 479.62778985962944Q1251.3412110212357 479.62778985962944 1243.0200112911748 477.26902458181695Q1234.6769711418751 474.91025930400446 1229.260547170602 470.0398458137064Q1223.82228278009 465.1694323234084 1223.82228278009 457.6126472667128L1223.82228278009 457.6126472667128Q1223.82228278009 452.5893508417418 1226.2684097348583 448.745437055677Q1228.6926962703878 444.8796828503732 1231.8377166408045 441.2760136759374L1231.8377166408045 441.2760136759374Q1235.4632262344794 455.5814882774854 1243.806266383779 462.41753949929387Q1252.12746611384 469.2535907211022 1264.0741754375754 469.2535907211022L1264.0741754375754 469.2535907211022Q1269.4250781511314 469.2535907211022 1274.6886191877315 467.22243173187485Q1279.9740006435704 465.1694323234084 1283.5121485602895 460.60478470245647Q1287.050296477008 456.0401370815045 1287.050296477008 448.658075378721L1287.050296477008 448.658075378721Q1287.050296477008 442.67380050723375 1284.9099353915858 437.95626995160876Q1282.7914147254023 433.23873939598377 1278.5543733930353 428.84881512894384Q1274.2954916414292 424.43705044266494 1267.7870467082062 419.1735094060648Q1261.256761355744 413.9099683694647 1252.280349048513 406.6807896013542L1252.280349048513 406.6807896013542Q1244.4177981224711 400.21602550660884 1239.0013741511982 392.74660212686933Q1233.584950179925 385.27717874712977 1233.584950179925 374.1167245159984L1233.584950179925 374.1167245159984Q1233.584950179925 362.1700151922629 1239.088735828154 354.0016983968752Q1244.5925214763834 345.8115411822485 1254.1804655223063 341.4871381729256Q1263.7684095682293 337.1627351636027 1276.195608115223 337.1627351636027L1276.195608115223 337.1627351636027Q1283.119021013987 337.1627351636027 1289.2343384009087 338.9754899604401Q1295.371496207069 340.7882447572774 1299.1498887354169 344.56663728562523Q1302.9282812637643 348.3231893947341 1302.9282812637643 354.3074642662213L1302.9282812637643 354.3074642662213Q1302.9282812637643 358.7192289525002 1300.482154308996 362.25737686921894Q1298.0578677734661 365.7955247859377 1295.8519854303272 367.67380084049205L1295.8519854303272 367.67380084049205Q1293.9518689565334 362.80338735019404 1290.0205934935125 358.54450559858816Q1286.089318030492 354.3074642662213 1280.6728940592188 351.5555714421067Q1275.2564700879457 348.80367861799215 1268.333057189181 348.80367861799215L1268.333057189181 348.80367861799215Q1260.3176233284667 348.80367861799215 1254.245986780023 354.0016983968752Q1248.196190650819 359.1778777565193 1248.196190650819 369.39919396037345L1248.196190650819 369.39919396037345Q1248.196190650819 374.9029796086026 1249.7687008360272 378.44112752532135Q1251.3412110212357 381.97927544204003 1255.2724864842567 385.6047850357148Q1259.2037619472771 389.2084542101506 1266.2145365229976 394.6467186006627Q1273.2034706794793 400.0631425719358 1284.2110419759374 409.3453207485128L1284.2110419759374 409.3453207485128Q1289.8677105588395 414.0628513041378 1293.9518689565334 418.86774353671876Q1298.0578677734661 423.6507953500608 1300.329271374323 429.54770854459196Q1302.6006749751796 435.4446217391232 1302.6006749751796 443.787661888423L1302.6006749751796 443.787661888423Q1302.6006749751796 453.681371803692 1297.1842510039064 461.8715290183187Q1291.7678270326332 470.0398458137064 1282.158042567471 474.84473804628743Q1272.570098521548 479.62778985962944 1259.9900170398814 479.62778985962944ZM1349.9507038853412 344.7195202202983L1349.9507038853412 344.7195202202983Q1349.9507038853412 346.44491334017965 1349.5575763390389 348.80367861799215Q1349.164448792737 351.16244389580464 1348.203470346221 354.3074642662213L1348.203470346221 354.3074642662213Q1342.3939188286454 357.93297385989604 1337.3706224036746 357.93297385989604L1337.3706224036746 357.93297385989604Q1332.6530918480498 357.93297385989604 1330.752975374256 356.1202190630587Q1328.874699319702 354.3074642662213 1328.874699319702 350.5290717378735L1328.874699319702 350.5290717378735Q1328.874699319702 348.80367861799215 1329.180465189048 346.59779627485267Q1329.5080714776332 344.3919139317132 1329.9667202816522 341.5744998498816L1329.9667202816522 341.5744998498816Q1335.7981122184665 337.9489902562069 1340.8214086434373 337.9489902562069L1340.8214086434373 337.9489902562069Q1344.4469182371122 337.9489902562069 1347.1988110612265 339.5215004414152Q1349.9507038853412 341.0940106266235 1349.9507038853412 344.7195202202983ZM1335.0118571258622 478.0552796744211L1335.0118571258622 478.0552796744211Q1329.5080714776332 478.0552796744211 1326.1228064955872 473.6653554073812Q1322.7375415135416 469.2535907211022 1322.7375415135416 457.3068813973668L1322.7375415135416 457.3068813973668Q1322.7375415135416 448.02470322078983 1324.397413375706 438.13099330552075Q1326.0354448186313 428.2154429710127 1327.6953166807957 417.5136375439005Q1329.333348123721 406.8336725360273 1329.333348123721 395.0398461469648L1329.333348123721 395.0398461469648Q1329.333348123721 389.9947093027547 1328.874699319702 384.5782853314816Q1328.3942100964437 379.1618613602085 1326.0354448186313 374.75009667392953L1326.0354448186313 374.75009667392953Q1327.7608379385124 373.0247035540482 1331.0805816628413 372.085565526771Q1334.378484967931 371.1245870802548 1336.5843673110703 371.1245870802548L1336.5843673110703 371.1245870802548Q1340.6685257087643 371.1245870802548 1343.879067336898 373.81095864665235Q1347.1114493842706 376.47548979381094 1347.1114493842706 383.0931368232293L1347.1114493842706 383.0931368232293Q1347.1114493842706 387.02441228625014 1346.0194284223203 394.88696321229173Q1344.9055670411312 402.74951413833344 1343.4859397905961 412.57770279588544Q1342.0881529592994 422.40589145343745 1340.9742915781103 432.4524843033796Q1339.88227061616 442.52091757256073 1339.88227061616 450.8639577218604L1339.88227061616 450.8639577218604Q1339.88227061616 457.0011155280207 1340.9087703203932 462.5704224339669Q1341.9134296053876 468.16156975915203 1345.844705068408 472.3986110915189L1345.844705068408 472.3986110915189Q1342.8744080519036 475.87123775052066 1339.88227061616 476.96325871247086Q1336.8901331804168 478.0552796744211 1335.0118571258622 478.0552796744211ZM1397.9122645341954 479.32202399028336L1397.9122645341954 479.32202399028336Q1392.8671276899854 479.32202399028336 1388.389841745989 477.26902458181695Q1383.9125558019932 475.2378655925895 1381.0733013009226 470.58585629468155Q1378.2558872190912 465.95568741601255 1378.2558872190912 458.0931364899709L1378.2558872190912 458.0931364899709Q1378.2558872190912 452.89511671108784 1379.1076635694121 444.9670445273292Q1379.9812803389727 437.0171319243315 1381.313545912552 427.8223154247106Q1382.6458114861312 418.6274989250897 1383.9780770597104 409.0395548791667Q1385.3321830525288 399.4297704140047 1386.424204014479 390.9556877492709L1386.424204014479 390.9556877492709Q1381.5537905241808 390.9556877492709 1375.6568773296494 391.7419428418751Q1369.7599641351185 392.5281979344793 1365.6758057374245 395.1927290816378L1365.6758057374245 395.1927290816378Q1365.6758057374245 389.68894343340867 1366.7678266993748 385.84502964734384Q1367.8598476613251 381.97927544204003 1372.57737821695 379.94811645281266Q1377.2949087725751 377.8951170443462 1387.8438312650142 377.8951170443462L1387.8438312650142 377.8951170443462Q1387.8438312650142 376.16972392446485 1387.9967141996872 374.4443308045835Q1388.1495971343602 372.6970972654631 1388.1495971343602 370.6659382762357L1388.1495971343602 370.6659382762357Q1388.1495971343602 364.8345463394215 1387.6909483303411 359.50548404510437Q1387.210459107083 354.15458133154823 1384.8516938292705 349.43705077592324L1384.8516938292705 349.43705077592324Q1386.5770869491516 347.8645405907149 1389.8094689965246 346.83804088648174Q1393.0200106246584 345.8115411822485 1395.3787759024708 345.8115411822485L1395.3787759024708 345.8115411822485Q1400.5767956813538 345.8115411822485 1403.4160501824244 349.43705077592324Q1406.2334642642559 353.040719950359 1406.2334642642559 362.32289812693597L1406.2334642642559 362.32289812693597Q1406.2334642642559 364.52878047007545 1405.687453783281 368.54741761005226Q1405.1414433023056 372.54421433079006 1404.3551882097017 377.8951170443462L1404.3551882097017 377.8951170443462Q1413.0039942283474 377.7422341096732 1419.5998008385268 376.803096082396Q1426.2174478679453 375.8421176358798 1429.973999977054 373.3304694233942L1429.973999977054 373.3304694233942Q1429.1877448844498 380.4067652568317 1426.282969125662 384.0977961082235Q1423.3781933668743 387.8106673788543 1417.5686418492996 389.14293295243357Q1411.737249912485 390.47519852601283 1402.149305866562 390.78096439535886L1402.149305866562 390.78096439535886Q1400.5767956813538 400.84939766454 1398.8514025614727 412.49034111892945Q1397.1260094415911 424.13128457331885 1396.012148060402 435.77222802770825Q1394.9201270984518 447.39133106285874 1394.9201270984518 457.6126472667128L1394.9201270984518 457.6126472667128Q1394.9201270984518 463.116432914942 1397.3444136339813 465.4751981927545Q1399.7905405887495 467.83396347056697 1402.9355609591662 467.83396347056697L1402.9355609591662 467.83396347056697Q1406.8668364221871 467.83396347056697 1411.103877754554 464.62342184243334Q1415.3627595061598 461.39103979506064 1417.8744077186457 456.52062630476263L1417.8744077186457 456.52062630476263Q1420.7136622197158 459.9714125445253 1420.7136622197158 463.90268800754615L1420.7136622197158 463.90268800754615Q1420.7136622197158 467.68108053589395 1418.1146523302746 471.2192284526127Q1415.5156424408328 474.7573763693314 1410.492346015862 477.0506203894269Q1405.4472091716516 479.32202399028336 1397.9122645341954 479.32202399028336ZM1472.912264200937 479.62778985962944L1472.912264200937 479.62778985962944Q1459.545927626666 479.62778985962944 1451.0500045426934 473.8182383420542Q1442.5540814587207 468.008686824479 1438.5572847379826 458.0931364899709Q1434.5386475980058 448.1775861554629 1434.5386475980058 436.2308768317274L1434.5386475980058 436.2308768317274Q1434.5386475980058 427.1234220090625 1436.8318916181015 417.75388215552954Q1439.103295218958 408.40618272123555 1443.3403365513245 399.7573767025898Q1447.5992183029307 391.108570683944 1453.889259043764 384.27251946213556Q1460.1792997845973 377.4146278210881 1468.107371968356 373.41783110035027Q1476.0572845713536 369.39919396037345 1485.6452286172766 369.39919396037345L1485.6452286172766 369.39919396037345Q1498.2253100989433 369.39919396037345 1504.2095849704301 375.6892347012068Q1510.1720194226787 381.97927544204003 1510.1720194226787 390.78096439535886L1510.1720194226787 390.78096439535886Q1510.1720194226787 397.70437729412333 1506.8085948598718 405.0209177391899Q1503.4233298778263 412.3374581842564 1496.893044525364 418.6274989250897Q1490.3627591729014 424.917539665923 1481.0805809963244 428.84881512894384Q1471.8202432389867 432.78009059196467 1460.0264168499243 432.78009059196467L1460.0264168499243 432.78009059196467Q1455.7675350983186 432.78009059196467 1451.5304937659512 432.2996013687066L1451.5304937659512 432.2996013687066Q1451.8362596352977 449.9248196945832 1458.126300376131 458.9667532595311Q1464.4163411169643 468.008686824479 1475.9044016366806 468.008686824479L1475.9044016366806 468.008686824479Q1483.766952562722 468.008686824479 1489.7293870149701 464.1429326191752Q1495.7136618864574 460.2990188331104 1499.4920544148054 452.1088616184837L1499.4920544148054 452.1088616184837Q1501.37033046936 453.85609515760405 1502.3094684966368 456.28038169313356Q1503.2704469431533 458.72650864790205 1503.2704469431533 460.93239099104153L1503.2704469431533 460.93239099104153Q1503.2704469431533 465.80280448133954 1500.2783095074096 469.3409523980583Q1497.286172071666 472.879100314777 1492.656003192997 475.1505039156335Q1488.003993895089 477.443747935729 1482.7404528584889 478.5357688976792Q1477.4769118218887 479.62778985962944 1472.912264200937 479.62778985962944ZM1458.9125554687353 422.71165732278354L1458.9125554687353 422.71165732278354Q1470.4006159884516 422.71165732278354 1478.11028397982 418.6274989250897Q1485.7981115519497 414.54334052739586 1489.7293870149701 408.31882104427956Q1493.660662477991 402.11614198040223 1493.660662477991 395.978984174242L1493.660662477991 395.978984174242Q1493.660662477991 389.8418263680817 1489.9041103688824 385.51742335875883Q1486.1257178405344 381.19302034943587 1478.263166914493 381.19302034943587L1478.263166914493 381.19302034943587Q1471.1868710810554 381.19302034943587 1466.3819788484743 385.21165748941274Q1461.5989270351324 389.2084542101506 1458.6067895993888 395.5858566279399Q1455.6146521636451 401.9632590457292 1454.042141978437 409.0395548791667Q1452.4696317932285 416.1158507126042 1451.8362596352977 422.23116809952546L1451.8362596352977 422.23116809952546Q1455.6146521636451 422.71165732278354 1458.9125554687353 422.71165732278354Z " fill="#ffffff" transform="matrix(0.5794042170517605,0,0,0.5794042170517605,0,65.55697464967116)"/></g></svg>