<svg xmlns="http://www.w3.org/2000/svg" viewBox="0 0 1000 600"><path fill="#4f776d" d="M0 0h1000v600H0z"/><g transform="translate(0 65.557) scale(.5794)"><rect width="333.333" height="333.333" rx="13.333" ry="13.333" y="237.961" fill="#90a955" x="215.739"/><path d="M353.703 479.628q-5.892 0-9.516-4.7-3.625-4.723-3.625-17.514 0-5.05.842-12.72.842-7.646 2.268-16.906 1.45-9.26 2.946-18.682-2.01-.187-4.209-.187h-4.536q.842-5.893 2.62-8.161 1.753-2.268 7.996-2.783 1.847-12.276 3.18-23.897 1.356-11.62 1.356-20.366 0-3.53-.748-8.511-.772-4.957-1.777-7.997 3.881-3.204 11.27-3.952 7.413-.748 14.661-.748 6.22 0 12.697.164 6.5.163 12.72.163 7.904 0 14.474-.584 6.57-.585 10.616-2.62-.515 7.577-2.946 11.528-2.455 3.976-6.477 5.308-4.046 1.357-9.938 1.357-8.581 0-17.677-1.1-9.096-1.098-17.841-2.618-.187 9.26-2.455 23.663-2.269 14.404-4.794 30.047 8.582-.164 16.836-.585 8.254-.42 15.245-1.59 6.968-1.192 11.177-3.367-.655 9.073-3.788 13.118-3.11 4.045-8.067 5.05-4.98 1.006-11.364 1.006-5.214 0-10.452-.491-5.214-.515-11.598-1.006-1.683 11.107-2.876 21.63-1.169 10.522-1.169 18.94 0 6.57 1.17 12.532 1.192 5.986 5.4 10.523-3.203 3.718-6.406 4.887-3.204 1.169-5.215 1.169zm293.489-1.573q-5.504 0-8.89-4.39-3.385-4.411-3.385-16.358 0-4.718.786-11.881.787-7.142 2.119-15.79 1.354-8.65 2.752-17.451-1.878-.175-3.931-.175h-4.237q.786-5.504 2.446-7.622 1.638-2.119 7.47-2.6 1.725-11.466 2.97-22.32 1.266-10.855 1.266-19.023 0-3.298-.699-7.95-.72-4.63-1.66-7.47 3.626-2.992 10.527-3.69 6.924-.7 13.694-.7 5.81 0 11.86.153 6.071.153 11.881.153 7.382 0 13.52-.546 6.136-.546 9.915-2.446-.48 7.076-2.752 10.767-2.293 3.713-6.05 4.958-3.778 1.267-9.282 1.267-8.016 0-16.511-1.027-8.496-1.026-16.665-2.446-.174 8.649-2.293 22.103-2.119 13.453-4.477 28.065 8.015-.153 15.725-.546 7.71-.393 14.24-1.486 6.508-1.113 10.44-3.145-.612 8.475-3.539 12.253-2.904 3.778-7.535 4.717-4.652.94-10.614.94-4.87 0-9.763-.459-4.87-.48-10.833-.94-1.572 10.375-2.686 20.203-1.092 9.828-1.092 17.691 0 6.137 1.092 11.706 1.114 5.592 5.045 9.829-2.992 3.472-5.984 4.564t-4.87 1.092zm88.366 0q-5.504 0-8.89-4.39-3.363-4.411-3.363-16.358 0-5.657 1.092-14.633 1.092-8.955 2.84-19.962 1.725-11.008 3.363-22.89 1.66-11.858 2.752-23.587 1.114-11.706 1.114-21.928 0-5.656-.48-11.094-.46-5.417-2.818-10.134 1.725-1.573 5.023-2.512 3.298-.94 5.504-.94 5.35 0 8.103 3.604 2.752 3.626 2.752 12.908 0 5.81-1.267 15.398-1.245 9.588-2.992 21.316-1.726 11.706-3.538 24.046-1.791 12.362-3.058 23.763-1.267 11.4-1.267 20.202 0 6.137 1.027 11.706 1.026 5.592 4.958 9.829-2.993 3.472-5.985 4.564-2.97 1.092-4.87 1.092zm69.518 1.573q-11.335 0-18.958-5.81-7.622-5.81-11.488-15.725-3.844-9.915-3.844-21.862 0-9.108 2.272-18.477 2.293-9.348 6.53-17.997 4.259-8.648 10.55-15.484 6.29-6.858 14.217-10.855 7.95-4.019 17.538-4.019 11.313 0 18.958 5.832 7.622 5.81 11.4 15.637 3.757 9.829 3.757 21.928 0 9.13-2.184 18.477-2.206 9.37-6.53 18.018-4.325 8.65-10.55 15.485-6.202 6.836-14.152 10.855-7.928 3.997-17.516 3.997zm7.688-11.62q6.465 0 11.007-3.712 4.565-3.691 7.557-9.654 2.992-5.984 4.63-12.754 1.66-6.75 2.359-13.04.72-6.29.72-10.548 0-18.39-6.835-27.737-6.858-9.37-18.477-9.37-6.29 0-10.79 3.691-4.477 3.713-7.381 9.61-2.905 5.897-4.63 12.645-1.748 6.771-2.447 13.061-.699 6.29-.699 10.527 0 18.412 6.749 27.847 6.77 9.435 18.237 9.435zm94.197 10.528q-3.603 0-5.416-1.813-1.813-1.813-2.599-4.958-2.664-11.16-5.744-23.5-3.058-12.34-6.443-24.068-3.385-11.707-7.076-21.23-3.691-9.5-7.47-15.156-3.778-5.679-7.556-5.832 2.053-5.962 6.071-8.168 3.997-2.206 6.836-2.206 4.084 0 8.321 3.626 4.26 3.603 7.71 12.58.94 2.511 2.6 8.474 1.659 5.984 3.625 13.694 1.965 7.71 3.93 16.03 1.967 8.344 3.54 15.726 1.572 7.404 2.664 12.667 1.092 5.264 1.092 6.989 5.198-13.213 10.549-28.152 5.35-14.94 7.862-29.55-1.9-4.718-4.171-8.584-2.272-3.844-5.264-5.416 1.725-3.145 5.176-5.416 3.473-2.294 7.404-2.294 2.992 0 5.81 1.726 2.839 1.747 4.411 5.503.94 2.534 2.512 8.343 1.573 5.81 3.45 13.454 1.901 7.622 3.714 15.725 1.79 8.081 3.363 15.398 1.573 7.316 2.6 12.427 1.026 5.11 1.026 6.836 4.237-9.894 7.862-20.989 3.626-11.095 6.203-21.775 2.599-10.701 4.019-19.35 1.42-8.649 1.42-13.825 0-2.206-.394-4.106-.393-1.878-1.507-3.45 2.206-3.452 5.744-4.631 3.538-1.18 5.591-1.18 3.145 0 5.11 1.791 1.967 1.813 1.967 6.225 0 3.145-1.507 10.068-1.486 6.902-4.15 16.337-2.687 9.435-6.29 20.05-3.626 10.614-7.863 21.163-4.259 10.527-8.976 19.503-1.573 2.97-2.119 4.478-.546 1.485-.546 2.904v.94q0 .48.153 1.113-5.35 1.879-8.801 1.879-3.779 0-5.592-1.813-1.812-1.813-2.599-4.958-3.45-14.764-5.656-23.653-2.206-8.889-3.538-14.305-1.333-5.439-2.425-9.523-3.625 11.16-8.103 22.408-4.477 11.248-9.194 20.53-1.42 2.97-1.966 4.478-.568 1.485-.72 2.904 0 .481.087.94.065.48.065 1.113-5.176 1.879-8.802 1.879zm141.068 1.092q-13.367 0-21.863-5.81-8.495-5.81-12.514-15.725-3.997-9.915-3.997-21.862 0-9.108 2.272-18.477 2.293-9.348 6.53-17.997 4.237-8.648 10.527-15.484 6.29-6.858 14.24-10.855 7.95-4.019 17.538-4.019 12.58 0 18.542 6.29 5.985 6.29 5.985 15.092 0 6.923-3.386 14.24-3.385 7.316-9.893 13.606-6.53 6.29-15.813 10.222-9.282 3.931-21.076 3.931-4.237 0-8.496-.48.328 17.625 6.618 26.667 6.29 9.042 17.756 9.042 7.863 0 13.847-3.866 5.984-3.844 9.74-12.034 1.9 1.747 2.84 4.171.94 2.447.94 4.652 0 4.87-2.993 8.409-2.97 3.538-7.622 5.81-4.63 2.293-9.894 3.385-5.285 1.092-9.828 1.092zm-14-56.916q11.466 0 19.176-4.085 7.71-4.084 11.64-10.308 3.932-6.203 3.932-12.34T1065 385.517q-3.779-4.324-11.641-4.324-7.076 0-11.86 4.019-4.804 3.996-7.797 10.374-2.97 6.377-4.542 13.454-1.573 7.076-2.206 13.191 3.778.48 7.076.48zm84.282 55.343q-5.504 0-8.889-4.39-3.385-4.411-3.385-16.358 0-9.282 1.66-19.176 1.66-9.916 3.298-20.617 1.66-10.68 1.66-22.474 0-5.045-.48-10.462-.46-5.416-2.818-9.828 1.725-1.725 5.023-2.664 3.298-.961 5.504-.961 4.084 0 7.316 2.686 3.21 2.664 3.21 9.282 0 4.543-1.484 14.306-1.485 9.74-3.058 21.228 5.962-15.877 12.886-26.885 6.923-11.008 13.213-16.686 6.29-5.657 10.527-5.657 2.993 0 4.718 2.053 1.725 2.031 2.446 4.718.699 2.664.699 4.87 0 1.878-.306 4.084-.327 2.206-.633 3.779-2.359-.48-4.412-.48-6.443 0-12.646 4.564-6.224 4.564-11.488 11.881-5.263 7.317-9.282 15.638-3.997 8.343-6.202 16.118-2.206 7.797-2.206 12.973 0 7.077 1.026 12.82 1.027 5.745 4.958 9.982-2.992 3.472-5.984 4.564-2.993 1.092-4.87 1.092zm141.679 1.573q-8.649 0-16.97-2.359-8.343-2.359-13.76-7.23-5.438-4.87-5.438-12.426 0-5.024 2.446-8.868 2.425-3.865 5.57-7.469 3.625 14.305 11.968 21.142 8.321 6.836 20.268 6.836 5.351 0 10.615-2.032 5.285-2.053 8.823-6.617 3.538-4.565 3.538-11.947 0-5.984-2.14-10.702-2.119-4.717-6.356-9.107-4.259-4.412-10.767-9.675-6.53-5.264-15.507-12.493-7.862-6.465-13.279-13.934-5.416-7.47-5.416-18.63 0-11.947 5.504-20.115 5.504-8.19 15.091-12.515 9.588-4.324 22.016-4.324 6.923 0 13.038 1.812 6.137 1.813 9.916 5.592 3.778 3.756 3.778 9.74 0 4.412-2.446 7.95-2.424 3.539-4.63 5.417-1.9-4.87-5.831-9.13-3.932-4.237-9.348-6.988-5.417-2.752-12.34-2.752-8.015 0-14.087 5.198-6.05 5.176-6.05 15.397 0 5.504 1.573 9.042 1.572 3.538 5.503 7.164 3.932 3.603 10.943 9.042 6.988 5.416 17.996 14.698 5.657 4.718 9.74 9.523 4.107 4.783 6.378 10.68 2.272 5.897 2.272 14.24 0 9.893-5.417 18.084-5.416 8.168-15.026 12.973-9.588 4.783-22.168 4.783zm89.96-134.908q0 1.725-.392 4.084-.394 2.358-1.355 5.503-5.81 3.626-10.832 3.626-4.718 0-6.618-1.813-1.878-1.813-1.878-5.59 0-1.726.305-3.932.328-2.206.787-5.024 5.831-3.625 10.854-3.625 3.626 0 6.378 1.573 2.752 1.572 2.752 5.198zm-14.938 133.335q-5.504 0-8.89-4.39-3.384-4.411-3.384-16.358 0-9.282 1.66-19.176 1.637-9.916 3.297-20.617 1.638-10.68 1.638-22.474 0-5.045-.458-10.462-.48-5.416-2.84-9.828 1.726-1.725 5.046-2.664 3.297-.961 5.503-.961 4.085 0 7.295 2.686 3.232 2.664 3.232 9.282 0 3.931-1.092 11.794-1.113 7.863-2.533 17.69-1.398 9.829-2.512 19.875-1.092 10.069-1.092 18.412 0 6.137 1.027 11.706 1.004 5.592 4.936 9.829-2.97 3.472-5.963 4.564-2.992 1.092-4.87 1.092zm62.9 1.267q-5.045 0-9.522-2.053-4.477-2.031-7.317-6.683-2.817-4.63-2.817-12.493 0-5.198.852-13.126.873-7.95 2.206-17.145 1.332-9.195 2.664-18.782 1.354-9.61 2.446-18.084-4.87 0-10.767.786-5.897.786-9.981 3.45 0-5.503 1.092-9.347 1.092-3.866 5.81-5.897 4.717-2.053 15.266-2.053 0-1.725.153-3.45.153-1.748.153-3.78 0-5.83-.46-11.16-.48-5.35-2.838-10.068 1.725-1.572 4.957-2.599 3.211-1.026 5.57-1.026 5.198 0 8.037 3.625 2.817 3.604 2.817 12.886 0 2.206-.546 6.224-.546 3.997-1.332 9.348 8.649-.153 15.245-1.092 6.617-.96 10.374-3.473-.786 7.077-3.691 10.768-2.905 3.713-8.714 5.045-5.832 1.332-15.42 1.638-1.572 10.068-3.298 21.71-1.725 11.64-2.839 23.281-1.092 11.62-1.092 21.84 0 5.504 2.424 7.863 2.447 2.359 5.592 2.359 3.93 0 8.168-3.21 4.259-3.233 6.77-8.103 2.84 3.45 2.84 7.382 0 3.778-2.6 7.316-2.598 3.538-7.622 5.832-5.045 2.271-12.58 2.271zm75 .306q-13.366 0-21.862-5.81-8.496-5.81-12.493-15.725-4.018-9.915-4.018-21.862 0-9.108 2.293-18.477 2.271-9.348 6.508-17.997 4.26-8.648 10.55-15.484 6.29-6.858 14.217-10.855 7.95-4.019 17.538-4.019 12.58 0 18.565 6.29 5.962 6.29 5.962 15.092 0 6.923-3.363 14.24-3.386 7.316-9.916 13.606t-15.812 10.222q-9.26 3.931-21.055 3.931-4.258 0-8.496-.48.306 17.625 6.596 26.667 6.29 9.042 17.778 9.042 7.863 0 13.825-3.866 5.985-3.844 9.763-12.034 1.878 1.747 2.817 4.171.961 2.447.961 4.652 0 4.87-2.992 8.409-2.992 3.538-7.622 5.81-4.652 2.293-9.916 3.385-5.263 1.092-9.828 1.092zm-14-56.916q11.489 0 19.198-4.085 7.688-4.084 11.62-10.308 3.93-6.203 3.93-12.34t-3.756-10.462q-3.778-4.324-11.64-4.324-7.077 0-11.882 4.019-4.783 3.996-7.775 10.374-2.992 6.377-4.565 13.454-1.572 7.076-2.206 13.191 3.779.48 7.077.48z" fill="#fff"/></g></svg>